<?xml version="1.0" encoding="utf-8"?>
<!-- Generator: Adobe Illustrator 24.0.2, SVG Export Plug-In . SVG Version: 6.00 Build 0)  -->
<svg version="1.1" id="レイヤー_1" xmlns="http://www.w3.org/2000/svg" xmlns:xlink="http://www.w3.org/1999/xlink" x="0px"
	 y="0px" viewBox="0 0 358.9 358.9" style="enable-background:new 0 0 358.9 358.9;" xml:space="preserve">
<style type="text/css">
	.st0{fill:#000B28;}
	.st1{fill:none;stroke:#FFFFFF;stroke-width:12;stroke-miterlimit:10;}
	.st2{enable-background:new    ;}
	.st3{fill:#FFFFFF;}
</style>
<title>yoyaku</title>
<rect x="73.6" y="73.6" transform="matrix(0.7071 -0.7071 0.7071 0.7071 -74.3322 179.4541)" class="st0" width="211.8" height="211.8"/>
<rect x="73.6" y="73.6" transform="matrix(0.7071 -0.7071 0.7071 0.7071 -74.3322 179.4541)" class="st1" width="211.8" height="211.8"/>
<path class="st0" d="M179.4,29.7l149.8,149.8L179.4,329.2L29.7,179.4L179.4,29.7 M179.4,0l-14.9,14.9L14.8,164.6L0,179.4l14.8,14.9
	l149.8,149.8l14.9,14.9l14.9-14.9L344,194.3l14.9-14.9L344,164.6L194.3,14.9L179.4,0z"/>
<g class="st2">
	<path class="st3" d="M175.5,174l-3.7-6.1c1.3-2.3,2.6-4.9,3.9-7.6c1.3-2.7,2.1-5.6,2.5-8.6c0.4-3,0.5-6,0.5-9s0.1-5.9,0.2-8.9
		c-0.6-1.5-1-3.2-1-5.3s-0.2-3.8-0.5-5.3c-0.3-1.5-1.1-3-2.3-4.5c-1.2-1.5-1.5-3.2-0.9-5.2h-1.9c-3.1,1-6.4,1.7-10,2.2
		c-3.5,0.5-6.9,1.1-10.2,1.8c-3.3,0.7-6.5,1.6-9.7,2.5c-3.2,1-6.4,1.9-9.6,2.9l-2.9,3.1l-1.9-6.1l1-2.2c4-1,7.9-2.2,11.7-3.6
		c3.9-1.4,7.8-2.5,11.9-3.3c4.1-0.8,8.2-1.5,12.4-2.2c4.1-0.7,8.1-1.6,11.9-2.5v-1.5l-8.7-3.7l-0.6-4.6l0.8-2.1c1.3,0,2.7,0,4.3,0
		c1.6,0,3-0.1,4.4-0.4c1.3-0.2,2.5-0.9,3.5-1.9c1-1,2.2-1.7,3.5-2.2l1-2.3h-8.9c-1.3,1.6-2.7,2.3-4.3,2.3c-1.6,0-3.2,0-4.7-0.1
		c-1.6-0.1-3.1,0.3-4.7,1.1c-1.6,0.8-3.4,0.9-5.4,0.3l-1.9-5.2c0.6-2,2.2-3.4,4.8-4.1c2.6-0.8,5.2-1.4,7.8-1.8
		c2.6-0.4,5.2-0.7,7.8-1c2.6-0.3,5.2-0.4,7.8-0.4l17,3.8c0.7,0.5,1.2,1.1,1.5,1.9s0.5,1.5,0.5,2.2s0,1.5,0,2.3c0,0.8,0,1.7,0,2.7
		l-16.2,6.5l-0.2,8.3c3.8,0.1,7.6,0.1,11.4,0.1c3.9,0,7.5,0.1,11,0.4c3.5,0.2,7,0.7,10.5,1.2c3.5,0.6,6.9,1.6,10.1,3.1v1.5h1.8
		l-0.2,6.7l-7.5,3.7l-7.8,4.7l-1.9,2.8l-4.7,1.5l-4.8-1.5l-5.8-5.3h-2.9v-2.2l14.4-6.1l1-2.2c-1.8-0.5-3.5-0.9-5.1-1.1
		c-1.6-0.2-3.4-0.4-5.3-0.4s-3.8,0-5.8,0c-1.9,0-3.9,0-5.8-0.1v2.2l0.8,2.2c-1.2,4.5-2.2,9.2-2.9,13.9c-0.7,4.7-1.2,9.6-1.5,14.6
		c-0.3,5-0.5,9.8-0.5,14.4c0,4.6-2.1,8.9-6.2,12.9L175.5,174z"/>
	<path class="st3" d="M133.2,267.5l-1-4.7l0.7-6.2l-0.7-4.8l0.7-2.1l3.2-0.6l4.8,3.3l0.2,8.9l-2.4,4.2L133.2,267.5z M151.2,279
		l-1.8-5.5c1.1-2.2,1.7-4.4,1.6-6.7c-0.1-2.3-0.1-4.7-0.2-7.2c0-2.5-0.1-5-0.1-7.5s0-4.8-0.1-7.1l-2.5-5.5h-6.5l-1.7-4.7
		c0.6-1.6,0.8-3,0.8-4.4c0-1.3,0.4-2.7,1.1-4.1c0.7-1.4,1.5-2.7,2.3-3.8c0.8-1.1,1.2-2.4,1.2-3.7l-5.7-2.7l-1-10.2
		c0.5-1.8,1.3-3.5,2.3-4.9c1.1-1.4,2.1-2.9,3.1-4.5c1-1.6,2.4-3,4-4.1c1.7-1.2,2.7-2.7,3.2-4.5h1.5c0.6,0.5,1,1.2,1,2.1
		c0,0.9,0.1,1.8,0.1,2.7c0,0.9,0.2,1.7,0.7,2.3c0.5,0.7,1.3,1,2.4,1c1.1,0.9,2.3,1.8,3.7,2.7c1.4,0.9,2.1,2.1,2.1,3.7
		c0,1.6,0,3.1,0,4.5c0,1.4,0.1,2.8,0.2,4.2l-1,1.4l-3.2,2.1v2c1.6,0.9,2.8,2,3.7,3.3c0.9,1.3,1.6,2.7,2.1,4c0.5,1.4,0.8,2.7,0.8,4.1
		c0.1,1.3,0.1,3,0.1,4.9c-0.5,0.5-1,1.2-1.6,2.1c-0.6,0.9-1.4,1.4-2.4,1.4c-1.1,0-2.1,0.2-3.2,0.4c-1.1,0.2-2.1,0.3-3.1,0.3l0.1,1.4
		l1,13.7l-2.1,24.4h-1.7v2L151.2,279z M156.5,207.7v-4l-3.4-5.4h-1.5l-7.2,9.6l6.5,0.8L156.5,207.7z M157.7,229l-0.1-2.1l-4.9-5.4
		l-6.4,8.9h4.2L157.7,229z M162.3,259.9v-0.6l-2.5-10.3l3.9-3.5c1.1,0.4,1.8,1.1,2.1,2c0.3,0.9,0.6,1.8,0.9,2.8
		c0.3,0.9,0.5,1.8,0.8,2.7c0.2,0.9,0.4,1.8,0.4,2.7l-0.5,1.4L162.3,259.9z M191.9,276.5l-4.2-2v-1.9h-0.7v-2.8l3.2-0.6l0.8-2.1
		c1.6-0.4,3.4-0.7,5.3-0.7s3.8-0.2,5.6-0.4c1.8-0.2,3.4-0.9,4.7-2.1c1.3-1.2,2.6-2.2,3.7-3.1c1.6-2.8,2.7-5.6,3.2-8.6
		c0.5-3,1-5.9,1.5-8.9c0.5-3,1-6.1,1.4-9.3c0.5-3.2,0.7-6.4,0.6-9.6c-1.1-1.3-2.4-2.1-4-2.4c-1.6-0.2-3.2-0.4-4.8-0.3
		c-1.6,0-3.4,0.1-5.3,0.1s-3.7,0-5.4,0c-1.5,0.6-3,1-4.7,1.2c-1.6,0.2-3.1,0.4-4.5,0.6c-1.3,0.2-2.7,0.7-4,1.4
		c-1.3,0.7-2.9,1.3-4.7,1.8l-3.3-2l-3.2,0.8l-1.6-4.9c0.4-1.8,1.3-3.6,2.7-5.5c1.3-1.9,3-3.5,4.9-4.8c1.9-1.3,3-3.2,3.3-5.5
		c0.3-2.3,0.6-4.4,1.1-6.2l2.4-0.7l5.7,3.4l0.8,6.9l-2.2,6.8h4l17-0.8c1.1,0.4,2.3,0.6,3.7,0.6s2.7,0.2,4,0.6
		c1.3,0.4,2.5,0.8,3.6,1.3c1.1,0.5,2.2,1.2,3.5,2l1.7,4.8c-2.6,3.7-4.5,7.5-5.5,11.4c-1.1,3.9-2,7.9-2.7,12.1
		c-0.7,4.1-1.3,8.3-1.8,12.7c-0.5,4.4-2.9,7.9-7.2,10.6c-1.6,1.1-3.1,1.9-4.5,2.5c-1.4,0.6-2.7,1.2-4,1.9c-1.3,0.7-2.9,1.1-4.8,1.4
		C195.2,276.3,193.4,276.5,191.9,276.5z M191.6,249.9l-8.9-2.7l-1.1-2.7l3.2-5.5l7.3-0.1l4.1,3.5l0.1,6.2l-0.8,1.3H191.6z"/>
</g>
</svg>
